<svg width="88" height="88" viewBox="0 0 88 88" fill="none" xmlns="http://www.w3.org/2000/svg">
<circle cx="44" cy="44" r="44" fill="#0088CC"/>
<path d="M34.224 60.704C31.496 60.704 29.076 60.0733 26.964 58.812C24.8813 57.5507 23.2387 55.7173 22.036 53.312C20.8627 50.9067 20.276 48.0027 20.276 44.6C20.276 41.1973 20.8627 38.2933 22.036 35.888C23.2387 33.4827 24.8813 31.6493 26.964 30.388C29.076 29.1267 31.496 28.496 34.224 28.496C36.952 28.496 39.3573 29.1267 41.44 30.388C43.552 31.6493 45.1947 33.4827 46.368 35.888C47.5707 38.2933 48.172 41.1973 48.172 44.6C48.172 48.0027 47.5707 50.9067 46.368 53.312C45.1947 55.7173 43.552 57.5507 41.44 58.812C39.3573 60.0733 36.952 60.704 34.224 60.704ZM34.224 52.388C34.8987 52.388 35.5 52.1533 36.028 51.684C36.556 51.2147 36.9667 50.408 37.26 49.264C37.5827 48.12 37.744 46.5653 37.744 44.6C37.744 42.6053 37.5827 41.0507 37.26 39.936C36.9667 38.792 36.556 37.9853 36.028 37.516C35.5 37.0467 34.8987 36.812 34.224 36.812C33.5493 36.812 32.948 37.0467 32.42 37.516C31.892 37.9853 31.4667 38.792 31.144 39.936C30.8507 41.0507 30.704 42.6053 30.704 44.6C30.704 46.5653 30.8507 48.12 31.144 49.264C31.4667 50.408 31.892 51.2147 32.42 51.684C32.948 52.1533 33.5493 52.388 34.224 52.388ZM54.5352 60V32.808L58.9792 37.032H49.2552V29.2H64.9192V60H54.5352Z" fill="white"/>
</svg>
