<svg width="88" height="88" viewBox="0 0 88 88" fill="none" xmlns="http://www.w3.org/2000/svg">
<circle cx="44" cy="44" r="44" fill="#0088CC"/>
<path d="M30.224 61.704C27.496 61.704 25.076 61.0733 22.964 59.812C20.8813 58.5507 19.2387 56.7173 18.036 54.312C16.8627 51.9067 16.276 49.0027 16.276 45.6C16.276 42.1973 16.8627 39.2933 18.036 36.888C19.2387 34.4827 20.8813 32.6493 22.964 31.388C25.076 30.1267 27.496 29.496 30.224 29.496C32.952 29.496 35.3573 30.1267 37.44 31.388C39.552 32.6493 41.1947 34.4827 42.368 36.888C43.5707 39.2933 44.172 42.1973 44.172 45.6C44.172 49.0027 43.5707 51.9067 42.368 54.312C41.1947 56.7173 39.552 58.5507 37.44 59.812C35.3573 61.0733 32.952 61.704 30.224 61.704ZM30.224 53.388C30.8987 53.388 31.5 53.1533 32.028 52.684C32.556 52.2147 32.9667 51.408 33.26 50.264C33.5827 49.12 33.744 47.5653 33.744 45.6C33.744 43.6053 33.5827 42.0507 33.26 40.936C32.9667 39.792 32.556 38.9853 32.028 38.516C31.5 38.0467 30.8987 37.812 30.224 37.812C29.5493 37.812 28.948 38.0467 28.42 38.516C27.892 38.9853 27.4667 39.792 27.144 40.936C26.8507 42.0507 26.704 43.6053 26.704 45.6C26.704 47.5653 26.8507 49.12 27.144 50.264C27.4667 51.408 27.892 52.2147 28.42 52.684C28.948 53.1533 29.5493 53.388 30.224 53.388ZM56.9152 61.704C54.8032 61.704 52.6618 61.4693 50.4912 61C48.3205 60.5307 46.4138 59.8413 44.7712 58.932L48.2912 51.276C49.6112 52.0387 50.9898 52.6107 52.4272 52.992C53.8938 53.344 55.2725 53.52 56.5632 53.52C57.7365 53.52 58.6898 53.3293 59.4232 52.948C60.1858 52.5373 60.5672 51.936 60.5672 51.144C60.5672 50.4693 60.2885 49.956 59.7312 49.604C59.1738 49.2227 58.2352 49.032 56.9152 49.032H52.8232V42.652L60.7872 34.556L61.7112 38.032H46.3552V30.2H69.3232V36.58L61.3592 44.676L56.3872 41.86H59.1152C62.9872 41.86 65.9352 42.7253 67.9592 44.456C69.9832 46.1867 70.9952 48.416 70.9952 51.144C70.9952 52.904 70.4965 54.5907 69.4992 56.204C68.5312 57.8173 67.0058 59.1373 64.9232 60.164C62.8698 61.1907 60.2005 61.704 56.9152 61.704Z" fill="white"/>
</svg>
