<svg width="88" height="88" viewBox="0 0 88 88" fill="none" xmlns="http://www.w3.org/2000/svg">
<circle cx="44" cy="44" r="44" fill="#0088CC"/>
<path d="M28.224 61.704C25.496 61.704 23.076 61.0733 20.964 59.812C18.8813 58.5507 17.2387 56.7173 16.036 54.312C14.8627 51.9067 14.276 49.0027 14.276 45.6C14.276 42.1973 14.8627 39.2933 16.036 36.888C17.2387 34.4827 18.8813 32.6493 20.964 31.388C23.076 30.1267 25.496 29.496 28.224 29.496C30.952 29.496 33.3573 30.1267 35.44 31.388C37.552 32.6493 39.1947 34.4827 40.368 36.888C41.5707 39.2933 42.172 42.1973 42.172 45.6C42.172 49.0027 41.5707 51.9067 40.368 54.312C39.1947 56.7173 37.552 58.5507 35.44 59.812C33.3573 61.0733 30.952 61.704 28.224 61.704ZM28.224 53.388C28.8987 53.388 29.5 53.1533 30.028 52.684C30.556 52.2147 30.9667 51.408 31.26 50.264C31.5827 49.12 31.744 47.5653 31.744 45.6C31.744 43.6053 31.5827 42.0507 31.26 40.936C30.9667 39.792 30.556 38.9853 30.028 38.516C29.5 38.0467 28.8987 37.812 28.224 37.812C27.5493 37.812 26.948 38.0467 26.42 38.516C25.892 38.9853 25.4667 39.792 25.144 40.936C24.8507 42.0507 24.704 43.6053 24.704 45.6C24.704 47.5653 24.8507 49.12 25.144 50.264C25.4667 51.408 25.892 52.2147 26.42 52.684C26.948 53.1533 27.5493 53.388 28.224 53.388ZM44.4768 55.72V49.12L57.5448 30.2H68.1928L55.6088 49.12L50.7688 47.668H74.6168V55.72H44.4768ZM60.4488 61V55.72L60.7568 47.668V42.96H70.5248V61H60.4488Z" fill="white"/>
</svg>
