<svg width="185" height="35" viewBox="0 0 185 35" fill="none" xmlns="http://www.w3.org/2000/svg">
<path d="M46.72 25V20.52L42.8 12H46.48L47.44 14.72C47.6 15.2133 47.76 15.6933 47.92 16.16C48.08 16.6267 48.2467 17.1133 48.42 17.62H48.5C48.6733 17.1133 48.84 16.6267 49 16.16C49.1733 15.6933 49.3467 15.2133 49.52 14.72L50.48 12H54.08L50.16 20.52V25H46.72ZM58.2875 25.24C57.4342 25.24 56.6275 25.0333 55.8675 24.62C55.1208 24.2067 54.5075 23.6133 54.0275 22.84C53.5608 22.0533 53.3275 21.1067 53.3275 20C53.3275 18.8933 53.5608 17.9533 54.0275 17.18C54.5075 16.3933 55.1208 15.7933 55.8675 15.38C56.6275 14.9667 57.4342 14.76 58.2875 14.76C59.1408 14.76 59.9408 14.9667 60.6875 15.38C61.4475 15.7933 62.0608 16.3933 62.5275 17.18C63.0075 17.9533 63.2475 18.8933 63.2475 20C63.2475 21.1067 63.0075 22.0533 62.5275 22.84C62.0608 23.6133 61.4475 24.2067 60.6875 24.62C59.9408 25.0333 59.1408 25.24 58.2875 25.24ZM58.2875 22.48C58.8075 22.48 59.1742 22.26 59.3875 21.82C59.6142 21.3667 59.7275 20.76 59.7275 20C59.7275 19.24 59.6142 18.64 59.3875 18.2C59.1742 17.7467 58.8075 17.52 58.2875 17.52C57.7675 17.52 57.3942 17.7467 57.1675 18.2C56.9542 18.64 56.8475 19.24 56.8475 20C56.8475 20.76 56.9542 21.3667 57.1675 21.82C57.3942 22.26 57.7675 22.48 58.2875 22.48ZM68.0789 25.24C66.9856 25.24 66.1922 24.8733 65.6989 24.14C65.2056 23.3933 64.9589 22.4 64.9589 21.16V15H68.3989V20.72C68.3989 21.36 68.4789 21.7867 68.6389 22C68.8122 22.2133 69.0656 22.32 69.3989 22.32C69.7189 22.32 69.9856 22.2533 70.1989 22.12C70.4122 21.9867 70.6256 21.76 70.8389 21.44V15H74.2789V25H71.4789L71.2389 23.68H71.1589C70.7589 24.16 70.3122 24.54 69.8189 24.82C69.3389 25.1 68.7589 25.24 68.0789 25.24ZM76.6014 25V15H79.4014L79.6414 16.72H79.7214C80.0947 16.04 80.5347 15.5467 81.0414 15.24C81.5614 14.92 82.0681 14.76 82.5614 14.76C82.8681 14.76 83.1147 14.78 83.3014 14.82C83.5014 14.8467 83.6681 14.8933 83.8014 14.96L83.2414 17.92C83.0681 17.88 82.8947 17.8467 82.7214 17.82C82.5481 17.78 82.3481 17.76 82.1214 17.76C81.7614 17.76 81.3814 17.8867 80.9814 18.14C80.5947 18.38 80.2814 18.8133 80.0414 19.44V25H76.6014ZM85.2408 25V12H89.0808C90.4008 12 91.5608 12.22 92.5608 12.66C93.5741 13.0867 94.3608 13.7733 94.9208 14.72C95.4808 15.6667 95.7608 16.9067 95.7608 18.44C95.7608 19.9733 95.4808 21.2267 94.9208 22.2C94.3608 23.16 93.5941 23.8667 92.6208 24.32C91.6474 24.7733 90.5341 25 89.2808 25H85.2408ZM88.6808 22.24H88.8808C89.5074 22.24 90.0741 22.1333 90.5808 21.92C91.0874 21.7067 91.4874 21.3267 91.7808 20.78C92.0874 20.2333 92.2408 19.4533 92.2408 18.44C92.2408 17.4267 92.0874 16.66 91.7808 16.14C91.4874 15.6067 91.0874 15.2467 90.5808 15.06C90.0741 14.86 89.5074 14.76 88.8808 14.76H88.6808V22.24ZM102.233 25.24C101.379 25.24 100.573 25.0333 99.8128 24.62C99.0661 24.2067 98.4528 23.6133 97.9728 22.84C97.5061 22.0533 97.2728 21.1067 97.2728 20C97.2728 18.8933 97.5061 17.9533 97.9728 17.18C98.4528 16.3933 99.0661 15.7933 99.8128 15.38C100.573 14.9667 101.379 14.76 102.233 14.76C103.086 14.76 103.886 14.9667 104.633 15.38C105.393 15.7933 106.006 16.3933 106.473 17.18C106.953 17.9533 107.193 18.8933 107.193 20C107.193 21.1067 106.953 22.0533 106.473 22.84C106.006 23.6133 105.393 24.2067 104.633 24.62C103.886 25.0333 103.086 25.24 102.233 25.24ZM102.233 22.48C102.753 22.48 103.119 22.26 103.333 21.82C103.559 21.3667 103.673 20.76 103.673 20C103.673 19.24 103.559 18.64 103.333 18.2C103.119 17.7467 102.753 17.52 102.233 17.52C101.713 17.52 101.339 17.7467 101.113 18.2C100.899 18.64 100.793 19.24 100.793 20C100.793 20.76 100.899 21.3667 101.113 21.82C101.339 22.26 101.713 22.48 102.233 22.48ZM108.984 25V15H111.784L112.024 16.22H112.104C112.504 15.8333 112.931 15.4933 113.384 15.2C113.851 14.9067 114.424 14.76 115.104 14.76C115.784 14.76 116.344 14.9 116.784 15.18C117.238 15.4467 117.598 15.84 117.864 16.36C118.278 15.9333 118.724 15.56 119.204 15.24C119.684 14.92 120.264 14.76 120.944 14.76C122.051 14.76 122.851 15.1333 123.344 15.88C123.851 16.6133 124.104 17.6 124.104 18.84V25H120.664V19.28C120.664 18.64 120.584 18.2133 120.424 18C120.264 17.7867 120.011 17.68 119.664 17.68C119.238 17.68 118.771 17.9333 118.264 18.44V25H114.824V19.28C114.824 18.64 114.744 18.2133 114.584 18C114.424 17.7867 114.171 17.68 113.824 17.68C113.398 17.68 112.931 17.9333 112.424 18.44V25H108.984ZM128.948 25.24C128.321 25.24 127.781 25.1 127.328 24.82C126.888 24.5267 126.548 24.1467 126.308 23.68C126.068 23.2133 125.948 22.7067 125.948 22.16C125.948 21.12 126.374 20.3067 127.228 19.72C128.081 19.12 129.468 18.72 131.388 18.52C131.308 17.8267 130.841 17.48 129.988 17.48C129.628 17.48 129.248 17.5533 128.848 17.7C128.448 17.8333 127.988 18.04 127.468 18.32L126.268 16.08C126.974 15.6533 127.688 15.3267 128.408 15.1C129.141 14.8733 129.894 14.76 130.668 14.76C131.974 14.76 132.994 15.1333 133.728 15.88C134.461 16.6133 134.828 17.8 134.828 19.44V25H132.028L131.788 24.04H131.708C131.308 24.4 130.881 24.6933 130.428 24.92C129.988 25.1333 129.494 25.24 128.948 25.24ZM130.148 22.6C130.428 22.6 130.661 22.54 130.848 22.42C131.034 22.2867 131.214 22.12 131.388 21.92V20.56C130.574 20.68 130.008 20.86 129.688 21.1C129.381 21.34 129.228 21.6 129.228 21.88C129.228 22.36 129.534 22.6 130.148 22.6ZM137.07 25V15H140.51V25H137.07ZM138.79 13.76C138.23 13.76 137.777 13.6067 137.43 13.3C137.083 12.98 136.91 12.56 136.91 12.04C136.91 11.52 137.083 11.1067 137.43 10.8C137.777 10.48 138.23 10.32 138.79 10.32C139.35 10.32 139.803 10.48 140.15 10.8C140.497 11.1067 140.67 11.52 140.67 12.04C140.67 12.56 140.497 12.98 140.15 13.3C139.803 13.6067 139.35 13.76 138.79 13.76ZM142.832 25V15H145.632L145.872 16.2H145.952C146.352 15.8133 146.805 15.48 147.312 15.2C147.832 14.9067 148.432 14.76 149.112 14.76C150.219 14.76 151.012 15.1333 151.492 15.88C151.985 16.6133 152.232 17.6 152.232 18.84V25H148.792V19.28C148.792 18.64 148.712 18.2133 148.552 18C148.392 17.7867 148.139 17.68 147.792 17.68C147.472 17.68 147.205 17.7467 146.992 17.88C146.779 18.0133 146.539 18.2 146.272 18.44V25H142.832ZM154.753 25V12H159.433C160.339 12 161.166 12.0933 161.913 12.28C162.659 12.4667 163.253 12.7933 163.693 13.26C164.133 13.7267 164.353 14.3867 164.353 15.24C164.353 15.8 164.206 16.36 163.913 16.92C163.619 17.4667 163.219 17.84 162.713 18.04V18.12C163.339 18.2933 163.866 18.6267 164.293 19.12C164.733 19.6133 164.953 20.2933 164.953 21.16C164.953 22.0533 164.719 22.7867 164.253 23.36C163.786 23.92 163.166 24.3333 162.393 24.6C161.619 24.8667 160.766 25 159.833 25H154.753ZM158.193 17.08H159.353C159.913 17.08 160.326 16.96 160.593 16.72C160.859 16.48 160.993 16.16 160.993 15.76C160.993 15.36 160.859 15.0733 160.593 14.9C160.326 14.7267 159.913 14.64 159.353 14.64H158.193V17.08ZM158.193 22.36H159.593C160.926 22.36 161.593 21.88 161.593 20.92C161.593 20.44 161.426 20.1 161.093 19.9C160.773 19.7 160.273 19.6 159.593 19.6H158.193V22.36ZM171.159 25.24C170.305 25.24 169.499 25.0333 168.739 24.62C167.992 24.2067 167.379 23.6133 166.899 22.84C166.432 22.0533 166.199 21.1067 166.199 20C166.199 18.8933 166.432 17.9533 166.899 17.18C167.379 16.3933 167.992 15.7933 168.739 15.38C169.499 14.9667 170.305 14.76 171.159 14.76C172.012 14.76 172.812 14.9667 173.559 15.38C174.319 15.7933 174.932 16.3933 175.399 17.18C175.879 17.9533 176.119 18.8933 176.119 20C176.119 21.1067 175.879 22.0533 175.399 22.84C174.932 23.6133 174.319 24.2067 173.559 24.62C172.812 25.0333 172.012 25.24 171.159 25.24ZM171.159 22.48C171.679 22.48 172.045 22.26 172.259 21.82C172.485 21.3667 172.599 20.76 172.599 20C172.599 19.24 172.485 18.64 172.259 18.2C172.045 17.7467 171.679 17.52 171.159 17.52C170.639 17.52 170.265 17.7467 170.039 18.2C169.825 18.64 169.719 19.24 169.719 20C169.719 20.76 169.825 21.3667 170.039 21.82C170.265 22.26 170.639 22.48 171.159 22.48ZM181.425 25.24C180.131 25.24 179.191 24.8667 178.605 24.12C178.031 23.36 177.745 22.3733 177.745 21.16V17.68H176.425V15.12L177.945 15L178.345 12.4H181.185V15H183.465V17.68H181.185V21.1C181.185 21.6467 181.305 22.0267 181.545 22.24C181.785 22.4533 182.065 22.56 182.385 22.56C182.545 22.56 182.698 22.5467 182.845 22.52C183.005 22.48 183.145 22.44 183.265 22.4L183.785 24.88C183.531 24.96 183.211 25.04 182.825 25.12C182.438 25.2 181.971 25.24 181.425 25.24Z" fill="#0088CC"/>
<path d="M30.6243 16.0052V11.6666C30.6243 10.8931 30.3171 10.1512 29.7701 9.60425C29.2231 9.05727 28.4812 8.74998 27.7077 8.74998H18.9577V6.83665C19.4025 6.43706 19.6868 5.86248 19.6868 5.2179C19.6868 4.63773 19.4564 4.08134 19.0461 3.6711C18.6359 3.26086 18.0795 3.0304 17.4993 3.0304C16.9192 3.0304 16.3628 3.26086 15.9526 3.6711C15.5423 4.08134 15.3118 4.63773 15.3118 5.2179C15.3118 5.86248 15.5962 6.43706 16.041 6.83665V8.74998H7.29102C6.51747 8.74998 5.7756 9.05727 5.22862 9.60425C4.68164 10.1512 4.37435 10.8931 4.37435 11.6666V16.0387L4.26935 16.046C3.90168 16.0722 3.55762 16.2368 3.30648 16.5066C3.05535 16.7764 2.91582 17.1314 2.91602 17.5V20.4166C2.91602 20.8034 3.06966 21.1744 3.34315 21.4478C3.61664 21.7213 3.98758 21.875 4.37435 21.875V29.1666C4.37435 29.9402 4.68164 30.6821 5.22862 31.229C5.7756 31.776 6.51747 32.0833 7.29102 32.0833H27.7077C28.4812 32.0833 29.2231 31.776 29.7701 31.229C30.3171 30.6821 30.6243 29.9402 30.6243 29.1666V21.875C31.0111 21.875 31.3821 21.7213 31.6555 21.4478C31.929 21.1744 32.0827 20.8034 32.0827 20.4166V17.5904C32.0996 17.3641 32.0636 17.1369 31.9777 16.9269C31.6831 16.2152 31.0516 16.0446 30.6243 16.0052ZM10.2077 17.5C10.2077 15.89 11.1877 14.5833 12.3952 14.5833C13.6027 14.5833 14.5827 15.89 14.5827 17.5C14.5827 19.11 13.6027 20.4166 12.3952 20.4166C11.1877 20.4166 10.2077 19.11 10.2077 17.5ZM23.3298 26.25C21.87 26.2456 11.666 26.25 11.666 26.25V23.3333C11.666 23.3333 21.8758 23.3304 23.3356 23.3333L23.3298 26.25ZM22.6035 20.4166C21.396 20.4166 20.416 19.11 20.416 17.5C20.416 15.89 21.396 14.5833 22.6035 14.5833C23.811 14.5833 24.791 15.89 24.791 17.5C24.791 19.11 23.811 20.4166 22.6035 20.4166Z" fill="#0088CC"/>
</svg>
