<svg width="88" height="88" viewBox="0 0 88 88" fill="none" xmlns="http://www.w3.org/2000/svg">
<circle cx="44" cy="44" r="44" fill="#0088CC"/>
<path d="M31.224 60.704C28.496 60.704 26.076 60.0733 23.964 58.812C21.8813 57.5507 20.2387 55.7173 19.036 53.312C17.8627 50.9067 17.276 48.0027 17.276 44.6C17.276 41.1973 17.8627 38.2933 19.036 35.888C20.2387 33.4827 21.8813 31.6493 23.964 30.388C26.076 29.1267 28.496 28.496 31.224 28.496C33.952 28.496 36.3573 29.1267 38.44 30.388C40.552 31.6493 42.1947 33.4827 43.368 35.888C44.5707 38.2933 45.172 41.1973 45.172 44.6C45.172 48.0027 44.5707 50.9067 43.368 53.312C42.1947 55.7173 40.552 57.5507 38.44 58.812C36.3573 60.0733 33.952 60.704 31.224 60.704ZM31.224 52.388C31.8987 52.388 32.5 52.1533 33.028 51.684C33.556 51.2147 33.9667 50.408 34.26 49.264C34.5827 48.12 34.744 46.5653 34.744 44.6C34.744 42.6053 34.5827 41.0507 34.26 39.936C33.9667 38.792 33.556 37.9853 33.028 37.516C32.5 37.0467 31.8987 36.812 31.224 36.812C30.5493 36.812 29.948 37.0467 29.42 37.516C28.892 37.9853 28.4667 38.792 28.144 39.936C27.8507 41.0507 27.704 42.6053 27.704 44.6C27.704 46.5653 27.8507 48.12 28.144 49.264C28.4667 50.408 28.892 51.2147 29.42 51.684C29.948 52.1533 30.5493 52.388 31.224 52.388ZM47.2672 60V53.62L58.3992 43.324C59.1032 42.6493 59.6165 42.0627 59.9392 41.564C60.2912 41.0653 60.5258 40.6253 60.6432 40.244C60.7605 39.8333 60.8192 39.452 60.8192 39.1C60.8192 38.3373 60.5698 37.7507 60.0712 37.34C59.5725 36.9 58.8245 36.68 57.8272 36.68C56.9178 36.68 56.0525 36.9293 55.2312 37.428C54.4098 37.8973 53.7645 38.6013 53.2952 39.54L45.4632 35.624C46.5778 33.512 48.2498 31.796 50.4792 30.476C52.7085 29.156 55.4805 28.496 58.7952 28.496C61.2298 28.496 63.3858 28.892 65.2632 29.684C67.1405 30.476 68.6072 31.5907 69.6632 33.028C70.7192 34.4653 71.2472 36.1667 71.2472 38.132C71.2472 39.1293 71.1152 40.1267 70.8512 41.124C70.6165 42.1213 70.1178 43.1773 69.3552 44.292C68.5925 45.3773 67.4632 46.5947 65.9672 47.944L57.6072 55.556L55.9792 51.948H71.9512V60H47.2672Z" fill="white"/>
</svg>
