<svg width="1919" height="305" viewBox="0 0 1919 305" fill="none" xmlns="http://www.w3.org/2000/svg">
<rect width="1919" height="305" fill="#0088CC"/>
<g clip-path="url(#clip0_69_394)">
<path d="M100.5 -47L201 3V53M100.5 -47V3M100.5 -47L0 3V53M100.5 3L201 53M100.5 3V53M100.5 3L0 53M201 53V103M100.5 53L201 103M100.5 53V103M100.5 53L0 103M201 103V153L100.5 103M100.5 103L0 153V103M0 103V53" stroke="#E3E3E3" stroke-opacity="0.1" stroke-width="2"/>
</g>
<g clip-path="url(#clip1_69_394)">
<path d="M300.5 -47L401 3V53M300.5 -47V3M300.5 -47L200 3V53M300.5 3L401 53M300.5 3V53M300.5 3L200 53M401 53V103M300.5 53L401 103M300.5 53V103M300.5 53L200 103M401 103V153L300.5 103M300.5 103L200 153V103M200 103V53" stroke="#E3E3E3" stroke-opacity="0.1" stroke-width="2"/>
</g>
<g clip-path="url(#clip2_69_394)">
<path d="M496.469 -47L591.937 3V53M496.469 -47V3M496.469 -47L401 3V53M496.469 3L591.937 53M496.469 3V53M496.469 3L401 53M591.937 53V103M496.469 53L591.937 103M496.469 53V103M496.469 53L401 103M591.937 103V153L496.469 103M496.469 103L401 153V103M401 103V53" stroke="#E3E3E3" stroke-opacity="0.1" stroke-width="2"/>
</g>
<g clip-path="url(#clip3_69_394)">
<path d="M686.456 -47L781.925 3V53M686.456 -47V3M686.456 -47L590.988 3V53M686.456 3L781.925 53M686.456 3V53M686.456 3L590.988 53M781.925 53V103M686.456 53L781.925 103M686.456 53V103M686.456 53L590.988 103M781.925 103V153L686.456 103M686.456 103L590.988 153V103M590.988 103V53" stroke="#E3E3E3" stroke-opacity="0.1" stroke-width="2"/>
</g>
<g clip-path="url(#clip4_69_394)">
<path d="M496.469 -47L591.937 3V53M496.469 -47V3M496.469 -47L401 3V53M496.469 3L591.937 53M496.469 3V53M496.469 3L401 53M591.937 53V103M496.469 53L591.937 103M496.469 53V103M496.469 53L401 103M591.937 103V153L496.469 103M496.469 103L401 153V103M401 103V53" stroke="#E3E3E3" stroke-opacity="0.1" stroke-width="2"/>
</g>
<g clip-path="url(#clip5_69_394)">
<path d="M686.456 -47L781.925 3V53M686.456 -47V3M686.456 -47L590.988 3V53M686.456 3L781.925 53M686.456 3V53M686.456 3L590.988 53M781.925 53V103M686.456 53L781.925 103M686.456 53V103M686.456 53L590.988 103M781.925 103V153L686.456 103M686.456 103L590.988 153V103M590.988 103V53" stroke="#E3E3E3" stroke-opacity="0.1" stroke-width="2"/>
</g>
<g clip-path="url(#clip6_69_394)">
<path d="M875.494 -47L970.962 3V53M875.494 -47V3M875.494 -47L780.025 3V53M875.494 3L970.962 53M875.494 3V53M875.494 3L780.025 53M970.962 53V103M875.494 53L970.962 103M875.494 53V103M875.494 53L780.025 103M970.962 103V153L875.494 103M875.494 103L780.025 153V103M780.025 103V53" stroke="#E3E3E3" stroke-opacity="0.1" stroke-width="2"/>
</g>
<g clip-path="url(#clip7_69_394)">
<path d="M1065.48 -47L1160.95 3V53M1065.48 -47V3M1065.48 -47L970.012 3V53M1065.48 3L1160.95 53M1065.48 3V53M1065.48 3L970.012 53M1160.95 53V103M1065.48 53L1160.95 103M1065.48 53V103M1065.48 53L970.012 103M1160.95 103V153L1065.48 103M1065.48 103L970.012 153V103M970.012 103V53" stroke="#E3E3E3" stroke-opacity="0.1" stroke-width="2"/>
</g>
<g clip-path="url(#clip8_69_394)">
<path d="M1254.52 -47L1349.99 3V53M1254.52 -47V3M1254.52 -47L1159.05 3V53M1254.52 3L1349.99 53M1254.52 3V53M1254.52 3L1159.05 53M1349.99 53V103M1254.52 53L1349.99 103M1254.52 53V103M1254.52 53L1159.05 103M1349.99 103V153L1254.52 103M1254.52 103L1159.05 153V103M1159.05 103V53" stroke="#E3E3E3" stroke-opacity="0.1" stroke-width="2"/>
</g>
<g clip-path="url(#clip9_69_394)">
<path d="M1444.51 -47L1539.97 3V53M1444.51 -47V3M1444.51 -47L1349.04 3V53M1444.51 3L1539.97 53M1444.51 3V53M1444.51 3L1349.04 53M1539.97 53V103M1444.51 53L1539.97 103M1444.51 53V103M1444.51 53L1349.04 103M1539.97 103V153L1444.51 103M1444.51 103L1349.04 153V103M1349.04 103V53" stroke="#E3E3E3" stroke-opacity="0.1" stroke-width="2"/>
</g>
<g clip-path="url(#clip10_69_394)">
<path d="M1633.54 -47L1729.01 3V53M1633.54 -47V3M1633.54 -47L1538.08 3V53M1633.54 3L1729.01 53M1633.54 3V53M1633.54 3L1538.08 53M1729.01 53V103M1633.54 53L1729.01 103M1633.54 53V103M1633.54 53L1538.08 103M1729.01 103V153L1633.54 103M1633.54 103L1538.08 153V103M1538.08 103V53" stroke="#E3E3E3" stroke-opacity="0.1" stroke-width="2"/>
</g>
<g clip-path="url(#clip11_69_394)">
<path d="M1823.53 -47L1919 3V53M1823.53 -47V3M1823.53 -47L1728.06 3V53M1823.53 3L1919 53M1823.53 3V53M1823.53 3L1728.06 53M1919 53V103M1823.53 53L1919 103M1823.53 53V103M1823.53 53L1728.06 103M1919 103V153L1823.53 103M1823.53 103L1728.06 153V103M1728.06 103V53" stroke="#E3E3E3" stroke-opacity="0.1" stroke-width="2"/>
</g>
<g clip-path="url(#clip12_69_394)">
<path d="M100.5 53L201 103V153M100.5 53V103M100.5 53L0 103V153M100.5 103L201 153M100.5 103V153M100.5 103L0 153M201 153V203M100.5 153L201 203M100.5 153V203M100.5 153L0 203M201 203V253L100.5 203M100.5 203L0 253V203M0 203V153" stroke="#E3E3E3" stroke-opacity="0.1" stroke-width="2"/>
</g>
<g clip-path="url(#clip13_69_394)">
<path d="M300.5 53L401 103V153M300.5 53V103M300.5 53L200 103V153M300.5 103L401 153M300.5 103V153M300.5 103L200 153M401 153V203M300.5 153L401 203M300.5 153V203M300.5 153L200 203M401 203V253L300.5 203M300.5 203L200 253V203M200 203V153" stroke="#E3E3E3" stroke-opacity="0.1" stroke-width="2"/>
</g>
<g clip-path="url(#clip14_69_394)">
<path d="M496.469 53L591.937 103V153M496.469 53V103M496.469 53L401 103V153M496.469 103L591.937 153M496.469 103V153M496.469 103L401 153M591.937 153V203M496.469 153L591.937 203M496.469 153V203M496.469 153L401 203M591.937 203V253L496.469 203M496.469 203L401 253V203M401 203V153" stroke="#E3E3E3" stroke-opacity="0.1" stroke-width="2"/>
</g>
<g clip-path="url(#clip15_69_394)">
<path d="M686.456 53L781.925 103V153M686.456 53V103M686.456 53L590.988 103V153M686.456 103L781.925 153M686.456 103V153M686.456 103L590.988 153M781.925 153V203M686.456 153L781.925 203M686.456 153V203M686.456 153L590.988 203M781.925 203V253L686.456 203M686.456 203L590.988 253V203M590.988 203V153" stroke="#E3E3E3" stroke-opacity="0.1" stroke-width="2"/>
</g>
<g clip-path="url(#clip16_69_394)">
<path d="M496.469 53L591.937 103V153M496.469 53V103M496.469 53L401 103V153M496.469 103L591.937 153M496.469 103V153M496.469 103L401 153M591.937 153V203M496.469 153L591.937 203M496.469 153V203M496.469 153L401 203M591.937 203V253L496.469 203M496.469 203L401 253V203M401 203V153" stroke="#E3E3E3" stroke-opacity="0.1" stroke-width="2"/>
</g>
<g clip-path="url(#clip17_69_394)">
<path d="M686.456 53L781.925 103V153M686.456 53V103M686.456 53L590.988 103V153M686.456 103L781.925 153M686.456 103V153M686.456 103L590.988 153M781.925 153V203M686.456 153L781.925 203M686.456 153V203M686.456 153L590.988 203M781.925 203V253L686.456 203M686.456 203L590.988 253V203M590.988 203V153" stroke="#E3E3E3" stroke-opacity="0.1" stroke-width="2"/>
</g>
<g clip-path="url(#clip18_69_394)">
<path d="M875.494 53L970.962 103V153M875.494 53V103M875.494 53L780.025 103V153M875.494 103L970.962 153M875.494 103V153M875.494 103L780.025 153M970.962 153V203M875.494 153L970.962 203M875.494 153V203M875.494 153L780.025 203M970.962 203V253L875.494 203M875.494 203L780.025 253V203M780.025 203V153" stroke="#E3E3E3" stroke-opacity="0.1" stroke-width="2"/>
</g>
<g clip-path="url(#clip19_69_394)">
<path d="M1065.48 53L1160.95 103V153M1065.48 53V103M1065.48 53L970.012 103V153M1065.48 103L1160.95 153M1065.48 103V153M1065.48 103L970.012 153M1160.95 153V203M1065.48 153L1160.95 203M1065.48 153V203M1065.48 153L970.012 203M1160.95 203V253L1065.48 203M1065.48 203L970.012 253V203M970.012 203V153" stroke="#E3E3E3" stroke-opacity="0.1" stroke-width="2"/>
</g>
<g clip-path="url(#clip20_69_394)">
<path d="M1254.52 53L1349.99 103V153M1254.52 53V103M1254.52 53L1159.05 103V153M1254.52 103L1349.99 153M1254.52 103V153M1254.52 103L1159.05 153M1349.99 153V203M1254.52 153L1349.99 203M1254.52 153V203M1254.52 153L1159.05 203M1349.99 203V253L1254.52 203M1254.52 203L1159.05 253V203M1159.05 203V153" stroke="#E3E3E3" stroke-opacity="0.1" stroke-width="2"/>
</g>
<g clip-path="url(#clip21_69_394)">
<path d="M1444.51 53L1539.97 103V153M1444.51 53V103M1444.51 53L1349.04 103V153M1444.51 103L1539.97 153M1444.51 103V153M1444.51 103L1349.04 153M1539.97 153V203M1444.51 153L1539.97 203M1444.51 153V203M1444.51 153L1349.04 203M1539.97 203V253L1444.51 203M1444.51 203L1349.04 253V203M1349.04 203V153" stroke="#E3E3E3" stroke-opacity="0.1" stroke-width="2"/>
</g>
<g clip-path="url(#clip22_69_394)">
<path d="M1633.54 53L1729.01 103V153M1633.54 53V103M1633.54 53L1538.08 103V153M1633.54 103L1729.01 153M1633.54 103V153M1633.54 103L1538.08 153M1729.01 153V203M1633.54 153L1729.01 203M1633.54 153V203M1633.54 153L1538.08 203M1729.01 203V253L1633.54 203M1633.54 203L1538.08 253V203M1538.08 203V153" stroke="#E3E3E3" stroke-opacity="0.1" stroke-width="2"/>
</g>
<g clip-path="url(#clip23_69_394)">
<path d="M1823.53 53L1919 103V153M1823.53 53V103M1823.53 53L1728.06 103V153M1823.53 103L1919 153M1823.53 103V153M1823.53 103L1728.06 153M1919 153V203M1823.53 153L1919 203M1823.53 153V203M1823.53 153L1728.06 203M1919 203V253L1823.53 203M1823.53 203L1728.06 253V203M1728.06 203V153" stroke="#E3E3E3" stroke-opacity="0.1" stroke-width="2"/>
</g>
<g clip-path="url(#clip24_69_394)">
<path d="M100.5 153L201 203V253M100.5 153V203M100.5 153L0 203V253M100.5 203L201 253M100.5 203V253M100.5 203L0 253M201 253V303M100.5 253L201 303M100.5 253V303M100.5 253L0 303M201 303V353L100.5 303M100.5 303L0 353V303M0 303V253" stroke="#E3E3E3" stroke-opacity="0.1" stroke-width="2"/>
</g>
<g clip-path="url(#clip25_69_394)">
<path d="M300.5 153L401 203V253M300.5 153V203M300.5 153L200 203V253M300.5 203L401 253M300.5 203V253M300.5 203L200 253M401 253V303M300.5 253L401 303M300.5 253V303M300.5 253L200 303M401 303V353L300.5 303M300.5 303L200 353V303M200 303V253" stroke="#E3E3E3" stroke-opacity="0.1" stroke-width="2"/>
</g>
<g clip-path="url(#clip26_69_394)">
<path d="M496.469 153L591.937 203V253M496.469 153V203M496.469 153L401 203V253M496.469 203L591.937 253M496.469 203V253M496.469 203L401 253M591.937 253V303M496.469 253L591.937 303M496.469 253V303M496.469 253L401 303M591.937 303V353L496.469 303M496.469 303L401 353V303M401 303V253" stroke="#E3E3E3" stroke-opacity="0.1" stroke-width="2"/>
</g>
<g clip-path="url(#clip27_69_394)">
<path d="M686.456 153L781.925 203V253M686.456 153V203M686.456 153L590.988 203V253M686.456 203L781.925 253M686.456 203V253M686.456 203L590.988 253M781.925 253V303M686.456 253L781.925 303M686.456 253V303M686.456 253L590.988 303M781.925 303V353L686.456 303M686.456 303L590.988 353V303M590.988 303V253" stroke="#E3E3E3" stroke-opacity="0.1" stroke-width="2"/>
</g>
<g clip-path="url(#clip28_69_394)">
<path d="M496.469 153L591.937 203V253M496.469 153V203M496.469 153L401 203V253M496.469 203L591.937 253M496.469 203V253M496.469 203L401 253M591.937 253V303M496.469 253L591.937 303M496.469 253V303M496.469 253L401 303M591.937 303V353L496.469 303M496.469 303L401 353V303M401 303V253" stroke="#E3E3E3" stroke-opacity="0.1" stroke-width="2"/>
</g>
<g clip-path="url(#clip29_69_394)">
<path d="M686.456 153L781.925 203V253M686.456 153V203M686.456 153L590.988 203V253M686.456 203L781.925 253M686.456 203V253M686.456 203L590.988 253M781.925 253V303M686.456 253L781.925 303M686.456 253V303M686.456 253L590.988 303M781.925 303V353L686.456 303M686.456 303L590.988 353V303M590.988 303V253" stroke="#E3E3E3" stroke-opacity="0.1" stroke-width="2"/>
</g>
<g clip-path="url(#clip30_69_394)">
<path d="M875.494 153L970.962 203V253M875.494 153V203M875.494 153L780.025 203V253M875.494 203L970.962 253M875.494 203V253M875.494 203L780.025 253M970.962 253V303M875.494 253L970.962 303M875.494 253V303M875.494 253L780.025 303M970.962 303V353L875.494 303M875.494 303L780.025 353V303M780.025 303V253" stroke="#E3E3E3" stroke-opacity="0.1" stroke-width="2"/>
</g>
<g clip-path="url(#clip31_69_394)">
<path d="M1065.48 153L1160.95 203V253M1065.48 153V203M1065.48 153L970.012 203V253M1065.48 203L1160.95 253M1065.48 203V253M1065.48 203L970.012 253M1160.95 253V303M1065.48 253L1160.95 303M1065.48 253V303M1065.48 253L970.012 303M1160.95 303V353L1065.48 303M1065.48 303L970.012 353V303M970.012 303V253" stroke="#E3E3E3" stroke-opacity="0.1" stroke-width="2"/>
</g>
<g clip-path="url(#clip32_69_394)">
<path d="M1254.52 153L1349.99 203V253M1254.52 153V203M1254.52 153L1159.05 203V253M1254.52 203L1349.99 253M1254.52 203V253M1254.52 203L1159.05 253M1349.99 253V303M1254.52 253L1349.99 303M1254.52 253V303M1254.52 253L1159.05 303M1349.99 303V353L1254.52 303M1254.52 303L1159.05 353V303M1159.05 303V253" stroke="#E3E3E3" stroke-opacity="0.1" stroke-width="2"/>
</g>
<g clip-path="url(#clip33_69_394)">
<path d="M1444.51 153L1539.97 203V253M1444.51 153V203M1444.51 153L1349.04 203V253M1444.51 203L1539.97 253M1444.51 203V253M1444.51 203L1349.04 253M1539.97 253V303M1444.51 253L1539.97 303M1444.51 253V303M1444.51 253L1349.04 303M1539.97 303V353L1444.51 303M1444.51 303L1349.04 353V303M1349.04 303V253" stroke="#E3E3E3" stroke-opacity="0.1" stroke-width="2"/>
</g>
<g clip-path="url(#clip34_69_394)">
<path d="M1633.54 153L1729.01 203V253M1633.54 153V203M1633.54 153L1538.08 203V253M1633.54 203L1729.01 253M1633.54 203V253M1633.54 203L1538.08 253M1729.01 253V303M1633.54 253L1729.01 303M1633.54 253V303M1633.54 253L1538.08 303M1729.01 303V353L1633.54 303M1633.54 303L1538.08 353V303M1538.08 303V253" stroke="#E3E3E3" stroke-opacity="0.1" stroke-width="2"/>
</g>
<g clip-path="url(#clip35_69_394)">
<path d="M1823.53 153L1919 203V253M1823.53 153V203M1823.53 153L1728.06 203V253M1823.53 203L1919 253M1823.53 203V253M1823.53 203L1728.06 253M1919 253V303M1823.53 253L1919 303M1823.53 253V303M1823.53 253L1728.06 303M1919 303V353L1823.53 303M1823.53 303L1728.06 353V303M1728.06 303V253" stroke="#E3E3E3" stroke-opacity="0.1" stroke-width="2"/>
</g>
<defs>
<clipPath id="clip0_69_394">
<rect width="201" height="100" fill="white" transform="translate(0 3)"/>
</clipPath>
<clipPath id="clip1_69_394">
<rect width="201" height="100" fill="white" transform="translate(200 3)"/>
</clipPath>
<clipPath id="clip2_69_394">
<rect width="190.937" height="100" fill="white" transform="translate(401 3)"/>
</clipPath>
<clipPath id="clip3_69_394">
<rect width="190.937" height="100" fill="white" transform="translate(590.988 3)"/>
</clipPath>
<clipPath id="clip4_69_394">
<rect width="190.937" height="100" fill="white" transform="translate(401 3)"/>
</clipPath>
<clipPath id="clip5_69_394">
<rect width="190.937" height="100" fill="white" transform="translate(590.988 3)"/>
</clipPath>
<clipPath id="clip6_69_394">
<rect width="190.937" height="100" fill="white" transform="translate(780.025 3)"/>
</clipPath>
<clipPath id="clip7_69_394">
<rect width="190.937" height="100" fill="white" transform="translate(970.012 3)"/>
</clipPath>
<clipPath id="clip8_69_394">
<rect width="190.937" height="100" fill="white" transform="translate(1159.05 3)"/>
</clipPath>
<clipPath id="clip9_69_394">
<rect width="190.937" height="100" fill="white" transform="translate(1349.04 3)"/>
</clipPath>
<clipPath id="clip10_69_394">
<rect width="190.937" height="100" fill="white" transform="translate(1538.08 3)"/>
</clipPath>
<clipPath id="clip11_69_394">
<rect width="190.937" height="100" fill="white" transform="translate(1728.06 3)"/>
</clipPath>
<clipPath id="clip12_69_394">
<rect width="201" height="100" fill="white" transform="translate(0 103)"/>
</clipPath>
<clipPath id="clip13_69_394">
<rect width="201" height="100" fill="white" transform="translate(200 103)"/>
</clipPath>
<clipPath id="clip14_69_394">
<rect width="190.937" height="100" fill="white" transform="translate(401 103)"/>
</clipPath>
<clipPath id="clip15_69_394">
<rect width="190.937" height="100" fill="white" transform="translate(590.988 103)"/>
</clipPath>
<clipPath id="clip16_69_394">
<rect width="190.937" height="100" fill="white" transform="translate(401 103)"/>
</clipPath>
<clipPath id="clip17_69_394">
<rect width="190.937" height="100" fill="white" transform="translate(590.988 103)"/>
</clipPath>
<clipPath id="clip18_69_394">
<rect width="190.937" height="100" fill="white" transform="translate(780.025 103)"/>
</clipPath>
<clipPath id="clip19_69_394">
<rect width="190.937" height="100" fill="white" transform="translate(970.012 103)"/>
</clipPath>
<clipPath id="clip20_69_394">
<rect width="190.937" height="100" fill="white" transform="translate(1159.05 103)"/>
</clipPath>
<clipPath id="clip21_69_394">
<rect width="190.937" height="100" fill="white" transform="translate(1349.04 103)"/>
</clipPath>
<clipPath id="clip22_69_394">
<rect width="190.937" height="100" fill="white" transform="translate(1538.08 103)"/>
</clipPath>
<clipPath id="clip23_69_394">
<rect width="190.937" height="100" fill="white" transform="translate(1728.06 103)"/>
</clipPath>
<clipPath id="clip24_69_394">
<rect width="201" height="100" fill="white" transform="translate(0 203)"/>
</clipPath>
<clipPath id="clip25_69_394">
<rect width="201" height="100" fill="white" transform="translate(200 203)"/>
</clipPath>
<clipPath id="clip26_69_394">
<rect width="190.937" height="100" fill="white" transform="translate(401 203)"/>
</clipPath>
<clipPath id="clip27_69_394">
<rect width="190.937" height="100" fill="white" transform="translate(590.988 203)"/>
</clipPath>
<clipPath id="clip28_69_394">
<rect width="190.937" height="100" fill="white" transform="translate(401 203)"/>
</clipPath>
<clipPath id="clip29_69_394">
<rect width="190.937" height="100" fill="white" transform="translate(590.988 203)"/>
</clipPath>
<clipPath id="clip30_69_394">
<rect width="190.937" height="100" fill="white" transform="translate(780.025 203)"/>
</clipPath>
<clipPath id="clip31_69_394">
<rect width="190.937" height="100" fill="white" transform="translate(970.012 203)"/>
</clipPath>
<clipPath id="clip32_69_394">
<rect width="190.937" height="100" fill="white" transform="translate(1159.05 203)"/>
</clipPath>
<clipPath id="clip33_69_394">
<rect width="190.937" height="100" fill="white" transform="translate(1349.04 203)"/>
</clipPath>
<clipPath id="clip34_69_394">
<rect width="190.937" height="100" fill="white" transform="translate(1538.08 203)"/>
</clipPath>
<clipPath id="clip35_69_394">
<rect width="190.937" height="100" fill="white" transform="translate(1728.06 203)"/>
</clipPath>
</defs>
</svg>
